<svg xmlns="http://www.w3.org/2000/svg" viewBox="0 0 132 157"><path fill-rule="evenodd" clip-rule="evenodd" fill="#799A3D" d="M66.27.03C80.847.025 95.423-.026 109.998.02c13.79.043 21.943 8.312 21.958 22.166.024 23.28.033 46.56.044 69.84.016 33.552-24.21 60.298-57.527 64.434-37.345 4.634-67.143-21.245-72.614-50.278-1-5.3-1.675-10.737-1.725-16.118C-.07 68.142.018 46.22.02 24.298.022 7.966 7.936.076 24.296.058 38.286.043 52.28.04 66.27.03z"/><path fill="#FFF" d="M90.586 33.72l.002.004-.002-.002zm19.525 53.844c.027-.41.033-.832.017-1.2-.002-.07-.008-.163-.015-.247-.038-.704-.14-1.436-.306-2.175-.047-.207-.102-.42-.185-.724-.07-.263-.144-.526-.235-.795-.024-.084-.05-.17-.085-.266-.018-.05-.046-.12-.073-.184-.506-1.348-1.228-2.697-2.147-4.01-1.064-1.74-2.904-3.62-5.473-5.588l-.587-.44c-.576-.426-1.208-.87-1.902-1.338-.327-.22-.668-.443-1.024-.673-1.617-1.04-3.46-2.125-5.48-3.22-1.104-.597-2.226-1.183-3.387-1.766 3.11-4.423 4.787-9.688 4.787-15.203 0-1.006-.058-2.018-.174-3.025l.115-.086c.506-.378 1.004-.82 1.52-1.347.41-.422.786-.857 1.115-1.297.346-.464.63-.893.87-1.31.64-1.117 1.11-2.32 1.402-3.583.682-2.952.337-6.093-.974-8.844-.388-.813-.858-1.592-1.4-2.316-2.555-3.42-6.604-5.465-10.83-5.465-2.844 0-5.546.897-7.816 2.592l-.248.185C72.77 23.26 67.46 22.74 62.19 23.852c-.83.176-1.558.36-2.224.562-.77.235-1.534.506-2.282.812l-.23-.173c-.65-.485-1.362-.917-2.117-1.283-.065-.033-.143-.073-.195-.097-.576-.268-1.202-.496-1.906-.696-.32-.092-.64-.172-.966-.238-.866-.18-1.755-.268-2.642-.268-4.225 0-8.27 2.04-10.827 5.462-.163.222-.313.448-.51.754-2.913 4.493-2.924 10.245-.028 14.654.597.91 1.283 1.722 2.033 2.414.33.304.68.595 1.045.868l.093.07c-.133 1.083-.198 2.085-.198 3.04v.21c-1.29-.61-2.583-1.07-3.856-1.373-.05-.013-.104-.028-.14-.036-.12-.03-.235-.048-.242-.048-.943-.2-1.883-.317-2.79-.345l-.397-.006c-.372 0-.734.016-1.078.043-.38.027-.753.067-1.038.113-.502.07-.99.18-1.54.315-3.015.736-5.622 2.308-7.536 4.544-1.43 1.67-2.394 3.595-2.868 5.722-.14.622-.226 1.263-.274 2.01-.03.293-.046.588-.053.885l-.003.032s-.013.164-.01.44c0 .215.008.534.038.937.024.316.063.687.125 1.094.045.307.106.637.18.983.255 1.18.64 2.308 1.14 3.346.153.317.322.637.507.955.328.566.72 1.134 1.207 1.744l.198.242c.533.628 1.12 1.206 1.747 1.718.335.303.695.607 1.08.905 1.367 1.06 2.953 1.995 4.716 2.78l.063.035c3.873 2.197 7.778 3.7 10.66 4.643-.265.8-.497 1.614-.69 2.43-.372 1.567-.612 3.182-.714 4.803-.78-.088-1.51-.11-2.243-.072-1.537.084-3.01.455-4.38 1.103-1.585.75-3.003 1.79-4.214 3.088-1.152 1.23-2.1 2.675-2.82 4.295-2.334 5.25-2.06 11.9.734 17.792 1.37 2.895 3.307 5.504 5.603 7.548l.306.26c.54.462 1.11.9 1.738 1.334 5.03 3.478 11.006 4.21 15.82 1.928.292-.137.565-.297.836-.46l.167-.102c2.034-1.182 3.705-2.806 4.97-4.83.042-.06.08-.12.118-.18l.076-.125c.027-.042.053-.085.078-.128l1.805-2.964c4.37 1.562 9.18 1.988 13.805 1.21.978-.165 1.96-.385 2.92-.657.457-.13.91-.27 1.36-.424l1.72 2.826.047.076.113.185c.065.107.136.21.212.307.042.06.087.122.135.187 1.25 1.895 2.845 3.414 4.742 4.517l.167.1c.27.165.544.325.83.46 1.875.89 3.9 1.34 6.018 1.34 4.64 0 9.426-2.22 13.13-6.09.858-.898 1.657-1.88 2.375-2.925.734-1.068 1.39-2.21 1.95-3.392 1.597-3.37 2.394-7.02 2.304-10.548-.012-.496-.042-.988-.09-1.47-.276-2.875-1.167-5.553-2.566-7.79 1.3-1.8 2.162-3.882 2.514-6.102.096-.606.15-1.153.167-1.59z"/><path fill="#5A622B" d="M30.984 59.87c-2.325 1.46-3.132 4.358-1.802 6.475s4.29 2.65 6.616 1.19c2.325-1.46 3.132-4.36 1.803-6.476-1.33-2.118-4.29-2.65-6.616-1.19zM45.308 32.73c-1.896 2.538-1.425 6.095 1.052 7.946l.024.017c1.525-3.6 3.938-6.73 6.958-9.12l-.116-.088c-2.477-1.85-6.022-1.293-7.918 1.245zM88.877 40.72l.058-.044c2.477-1.85 2.948-5.408 1.052-7.946-1.896-2.538-5.44-3.095-7.918-1.245l-.14.105c3.016 2.395 5.425 5.526 6.947 9.13zM58.643 45.63c0-1.258-.835-2.28-1.866-2.28-1.03 0-1.865 1.022-1.865 2.28 0 1.26.835 2.28 1.865 2.28s1.866-1.02 1.866-2.28zM77.752 43.35c-1.03 0-1.865 1.022-1.865 2.28 0 1.26.835 2.28 1.865 2.28s1.865-1.02 1.865-2.28c0-1.258-.835-2.28-1.865-2.28zM70.362 52.616c-.147 1.054-1.097 1.68-1.73 1.98-.16.088-.333.16-.518.21l-.045.016v-.004c-.045.013-.09.028-.14.038-.184.038-.378.06-.578.06-.256 0-.5-.036-.732-.1l.004.006s-.104-.03-.264-.093l-.086-.035c-.607-.25-1.8-.892-1.938-2.104-.02-.084-.032-.17-.032-.26 0-1.062 1.365-1.923 3.048-1.923 1.553 0 2.832.734 3.02 1.682l.002-.003v.006c.015.078.026.157.026.238 0 .098-.015.193-.038.286zm-3.01-5.645c-5.904.102-10.4 5.255-10.4 8.6 0 .053.01.104.012.157-.003.082-.012.163-.012.246 0 3.105 2.312 5.664 5.307 6.066 1.098 1.64 2.968 2.72 5.092 2.72 2.123 0 3.994-1.08 5.093-2.72 2.995-.403 5.307-2.962 5.307-6.067 0-.083-.01-.164-.013-.246 0-.053.012-.104.012-.157 0-3.345-4.497-8.498-10.4-8.6z"/><path fill="#799A3D" d="M70.374 52.087c-.19-.946-1.47-1.68-3.022-1.68-1.683 0-3.048.86-3.048 1.924 0 .09.013.176.032.26.137 1.213 1.33 1.856 1.938 2.105l.086.034c.16.06.264.092.264.092l-.004-.005c.23.063.476.098.732.098.2 0 .394-.02.58-.06.047-.01.093-.024.14-.037l-.003.004.044-.015c.185-.052.36-.123.52-.21.632-.3 1.58-.927 1.728-1.98.023-.094.038-.19.038-.286 0-.08-.01-.16-.026-.237v-.006z"/><path fill="#5A622B" d="M36.258 97.896c-4.504 2.134-5.955 8.51-3.24 14.24 2.716 5.73 8.57 8.647 13.074 6.512 4.504-2.135 5.955-8.51 3.24-14.24-2.716-5.732-8.57-8.647-13.074-6.512zM98.268 97.896c-4.505-2.135-10.358.78-13.073 6.51-2.715 5.732-1.265 12.107 3.24 14.242 4.505 2.135 10.358-.78 13.073-6.51 2.715-5.732 1.265-12.108-3.24-14.242zM75.18 80.44c-2.376.36-5.147.57-8.113.57s-5.737-.21-8.112-.57c-1.614-.246-3.268.292-4.177 1.39-3.128 3.78-4.55 9.018-3.043 14.557 1.4 5.158 5.46 9.32 10.594 10.8C73.155 110.31 83 102.277 83 91.947c0-3.847-1.37-7.367-3.647-10.116-.908-1.097-2.562-1.636-4.176-1.39z"/><path fill="#799A3D" d="M101.508 112.137c-2.715 5.73-8.568 8.646-13.073 6.51-4.505-2.134-5.955-8.51-3.24-14.24s8.568-8.646 13.073-6.51c4.505 2.133 5.955 8.51 3.24 14.24zM81.928 31.59l.14-.105c2.478-1.85 6.023-1.293 7.92 1.245 1.895 2.538 1.424 6.095-1.053 7.946l-.058.043c-1.522-3.604-3.93-6.735-6.948-9.13zm-14.86 76.28c-8.802 0-15.937-7.13-15.937-15.923 0-3.847 1.373-7.367 3.648-10.116.91-1.098 2.563-1.636 4.177-1.39 2.375.36 5.146.57 8.112.57s5.737-.21 8.112-.57c1.613-.246 3.267.293 4.175 1.39 2.276 2.75 3.647 6.27 3.647 10.117 0 8.794-7.134 15.923-15.935 15.923zM46.09 118.648c-4.505 2.135-10.358-.78-13.074-6.51-2.715-5.732-1.264-12.108 3.24-14.242 4.505-2.135 10.358.78 13.073 6.51 2.717 5.732 1.266 12.107-3.238 14.242zm-.784-85.918c1.896-2.538 5.44-3.095 7.918-1.245l.116.087c-3.02 2.392-5.433 5.52-6.958 9.12l-.024-.016c-2.477-1.85-2.948-5.408-1.052-7.946zm11.47 10.62c1.03 0 1.864 1.022 1.864 2.28 0 1.26-.834 2.28-1.865 2.28-1.03 0-1.864-1.02-1.864-2.28 0-1.258.834-2.28 1.864-2.28zm10.574 3.62c5.903.102 10.4 5.255 10.4 8.6 0 .053-.01.104-.013.157.003.082.012.163.012.246 0 3.105-2.312 5.664-5.307 6.066-1.1 1.64-2.97 2.72-5.093 2.72-2.124 0-3.994-1.08-5.093-2.72-2.996-.403-5.308-2.962-5.308-6.067 0-.083.01-.164.012-.246 0-.053-.012-.104-.012-.157 0-3.345 4.496-8.498 10.4-8.6zm10.4-3.62c1.03 0 1.865 1.022 1.865 2.28 0 1.26-.835 2.28-1.865 2.28s-1.865-1.02-1.865-2.28c0-1.258.835-2.28 1.865-2.28zM35.798 67.536c-2.325 1.46-5.287.927-6.616-1.19-1.33-2.117-.523-5.016 1.802-6.476s5.287-.928 6.617 1.19c1.33 2.116.523 5.015-1.802 6.475zm-9.01-5.574c-.803-.23-1.296-.964-1.1-1.64.193-.674 1-1.034 1.803-.802.803.23 1.296.965 1.102 1.64-.195.674-1.002 1.034-1.805.803zm2.01-5.564c.62-.33 1.44.003 1.83.742.39.737.204 1.602-.417 1.93-.62.328-1.44-.003-1.83-.74-.39-.74-.204-1.603.417-1.932zm4.823-1.442c.695.107 1.155.862 1.028 1.687-.127.826-.792 1.41-1.486 1.302-.694-.107-1.154-.862-1.027-1.687.126-.825.792-1.408 1.486-1.3zm73.178 32.4c.075-1.19-.084-2.505-.577-3.926-.015-.047-.025-.095-.042-.142-.01-.03-.026-.06-.037-.09-.4-1.08-.994-2.222-1.842-3.42-1.25-2.107-5.426-6.64-19.42-13.266L84.03 66c4.12-4.18 6.665-9.923 6.665-16.264 0-1.538-.153-3.04-.438-4.492l1.712-1.28c4.38-3.27 5.213-9.562 1.86-14.05-3.352-4.488-9.62-5.473-14.002-2.2l-1.822 1.36c-3.12-1.58-6.646-2.476-10.382-2.476-3.724 0-7.24.89-10.354 2.463l-1.804-1.347c-4.38-3.272-10.65-2.287-14 2.2-3.353 4.49-2.52 10.78 1.86 14.052l1.672 1.25c-.29 1.462-.444 2.973-.444 4.52 0 2.55.418 5 1.177 7.295-2.477-2.303-4.24-3.34-5.35-3.808-1.37-.7-2.64-1.16-3.822-1.436-.034-.008-.065-.02-.1-.027-.05-.012-.1-.017-.153-.027-1.548-.332-2.937-.35-4.163-.154-4.45.607-8.184 3.67-9.153 8.015-.117.523-.175 1.044-.206 1.564-.032.284-.043.573-.045.862l-.008-.013s-.284 5.25 3.93 8.69l-.003-.01c1.23 1.137 2.9 2.287 5.17 3.28 5.75 3.306 11.694 4.992 13.706 5.505-1.665 3.365-2.607 7.162-2.607 11.184 0 .805.04 1.6.114 2.387-2.98-1.01-5.827-1.465-8.58-.16-6.564 3.11-8.68 12.403-4.72 20.754 3.956 8.353 12.486 12.602 19.05 9.49 1.978-.936 3.543-2.44 4.668-4.303l.004.007.112-.186c.01-.013.017-.026.025-.04l3.304-5.43c3.207 1.56 6.8 2.434 10.593 2.434 3.65 0 7.11-.814 10.223-2.263l3.2 5.258.025.04.113.186.005-.007c1.125 1.863 2.69 3.367 4.666 4.303 6.566 3.112 15.096-1.137 19.053-9.49 3.254-6.865 2.396-14.36-1.658-18.54 2.227-1.965 3.56-4.777 3.673-7.745z"/><path fill="#5A622B" d="M27.49 59.518c-.8-.232-1.61.128-1.803.803-.195.676.298 1.41 1.1 1.64.803.232 1.61-.128 1.805-.802.194-.675-.3-1.41-1.1-1.64zM33.162 57.942c.694.107 1.36-.476 1.486-1.3.127-.826-.333-1.58-1.027-1.688-.693-.107-1.36.476-1.485 1.3-.127.826.333 1.58 1.027 1.688zM30.21 59.068c.622-.328.808-1.193.418-1.93-.39-.74-1.21-1.07-1.83-.742-.622.33-.808 1.193-.418 1.93.39.74 1.21 1.07 1.83.742z"/></svg>